# Blender v2.77 (sub 0) OBJ File: ''
# www.blender.org
mtllib triangle.mtl
o Circle
v 0.000000 0.000000 -1.000000
v -0.866025 0.000000 0.500000
v 0.866025 0.000000 0.500000
v 0.000000 0.100000 -1.000000
v -0.866025 0.100000 0.500000
v 0.866025 0.100000 0.500000
vt 0.5114 0.9104
vt 0.0519 0.1145
vt 0.9709 0.1145
vt 0.9691 0.1127
vt 0.5096 0.9086
vt 0.0501 0.1127
vt 0.9807 0.9703
vt 0.9806 0.9687
vt 0.9807 0.9687
vt 0.9807 0.9703
vt 0.9807 0.9687
vt 0.9807 0.9687
vt 0.9808 0.9703
vt 0.9806 0.9703
vt 0.9807 0.9703
vt 0.9808 0.9687
vn 0.0000 -1.0000 0.0000
vn 0.0000 1.0000 -0.0000
vn 0.8660 0.0000 -0.5000
vn 0.0000 0.0000 1.0000
vn -0.8660 0.0000 -0.5000
usemtl None
s off
f 2/1/1 1/2/1 3/3/1
f 5/4/2 6/5/2 4/6/2
f 1/7/3 6/8/3 3/9/3
f 3/10/4 5/11/4 2/12/4
f 2/12/5 4/13/5 1/7/5
f 1/7/3 4/14/3 6/8/3
f 3/10/4 6/15/4 5/11/4
f 2/12/5 5/16/5 4/13/5
